<?xml version="1.0" encoding="UTF-8" standalone="no"?>
<svg
   xmlns:dc="http://purl.org/dc/elements/1.1/"
   xmlns:cc="http://creativecommons.org/ns#"
   xmlns:rdf="http://www.w3.org/1999/02/22-rdf-syntax-ns#"
   xmlns:svg="http://www.w3.org/2000/svg"
   xmlns="http://www.w3.org/2000/svg"
   xmlns:sodipodi="http://sodipodi.sourceforge.net/DTD/sodipodi-0.dtd"
   xmlns:inkscape="http://www.inkscape.org/namespaces/inkscape"
   viewBox="0 0 48 48"
   version="1.1"
   id="svg10"
   sodipodi:docname="cs.svg"
   width="48"
   height="48"
   inkscape:version="1.0.2-2 (e86c870879, 2021-01-15)">
  <metadata
     id="metadata16">
    <rdf:RDF>
      <cc:Work
         rdf:about="">
        <dc:format>image/svg+xml</dc:format>
        <dc:type
           rdf:resource="http://purl.org/dc/dcmitype/StillImage" />
        <dc:title></dc:title>
      </cc:Work>
    </rdf:RDF>
  </metadata>
  <defs
     id="defs14" />
  <sodipodi:namedview
     pagecolor="#ffffff"
     bordercolor="#666666"
     borderopacity="1"
     objecttolerance="10"
     gridtolerance="10"
     guidetolerance="10"
     inkscape:pageopacity="0"
     inkscape:pageshadow="2"
     inkscape:window-width="1366"
     inkscape:window-height="715"
     id="namedview12"
     showgrid="false"
     inkscape:zoom="4.28125"
     inkscape:cx="64"
     inkscape:cy="64"
     inkscape:window-x="-8"
     inkscape:window-y="-8"
     inkscape:window-maximized="1"
     inkscape:current-layer="svg10" />
  <g
     id="g8"
     transform="matrix(0.38835032,0,0,0.38835032,-0.8350032,-0.8543707)">
    <path
       fill="#9b4f96"
       d="M 115.4,30.7 67.1,2.9 C 66.3,2.4 65.2,2.2 64,2.2 c -1.2,0 -2.3,0.3 -3.1,0.7 l -48,27.9 c -1.7,1 -2.9,3.5 -2.9,5.4 v 55.7 c 0,1.1 0.2,2.4 1,3.5 l 106.8,-62 c -0.6,-1.2 -1.5,-2.1 -2.4,-2.7 z"
       id="path2" />
    <path
       fill="#68217a"
       d="m 10.7,95.3 c 0.5,0.8 1.2,1.5 1.9,1.9 l 48.2,27.9 c 0.8,0.5 1.9,0.7 3.1,0.7 1.2,0 2.3,-0.3 3.1,-0.7 l 48,-27.9 c 1.7,-1 2.9,-3.5 2.9,-5.4 V 36.1 c 0,-0.9 -0.1,-1.9 -0.6,-2.8 z"
       id="path4" />
    <path
       fill="#ffffff"
       d="M 85.3,76.1 C 81.1,83.5 73.1,88.5 64,88.5 50.5,88.5 39.5,77.5 39.5,64 c 0,-13.5 11,-24.5 24.5,-24.5 9.1,0 17.1,5 21.3,12.5 l 13,-7.5 C 91.5,32.6 78.7,24.5 64,24.5 42.2,24.5 24.5,42.2 24.5,64 c 0,21.8 17.7,39.5 39.5,39.5 14.6,0 27.4,-8 34.2,-19.8 z M 97,66.2 97.9,61.9 h -4.2 v -4.7 h 5.1 L 100,51 h 4.9 l -1.2,6.1 h 3.8 l 1.2,-6.1 h 4.8 l -1.2,6.1 h 2.4 v 4.7 h -3.3 l -0.9,4.3 h 4.2 v 4.7 h -5.1 l -1.2,6 h -4.9 l 1.2,-6 h -3.8 l -1.2,6 h -4.8 l 1.2,-6 H 93.7 V 66.1 H 97 Z m 4.8,0 h 3.8 l 0.9,-4.3 h -3.8 z"
       id="path6" />
  </g>
</svg>
