<?xml version="1.0" encoding="UTF-8" standalone="no"?>
<svg
   xmlns:dc="http://purl.org/dc/elements/1.1/"
   xmlns:cc="http://creativecommons.org/ns#"
   xmlns:rdf="http://www.w3.org/1999/02/22-rdf-syntax-ns#"
   xmlns:svg="http://www.w3.org/2000/svg"
   xmlns="http://www.w3.org/2000/svg"
   xmlns:sodipodi="http://sodipodi.sourceforge.net/DTD/sodipodi-0.dtd"
   xmlns:inkscape="http://www.inkscape.org/namespaces/inkscape"
   viewBox="0 0 48 48"
   version="1.1"
   id="svg14"
   sodipodi:docname="css.svg"
   width="48"
   height="48"
   inkscape:version="1.0.2-2 (e86c870879, 2021-01-15)">
  <metadata
     id="metadata20">
    <rdf:RDF>
      <cc:Work
         rdf:about="">
        <dc:format>image/svg+xml</dc:format>
        <dc:type
           rdf:resource="http://purl.org/dc/dcmitype/StillImage" />
        <dc:title></dc:title>
      </cc:Work>
    </rdf:RDF>
  </metadata>
  <defs
     id="defs18" />
  <sodipodi:namedview
     pagecolor="#ffffff"
     bordercolor="#666666"
     borderopacity="1"
     objecttolerance="10"
     gridtolerance="10"
     guidetolerance="10"
     inkscape:pageopacity="0"
     inkscape:pageshadow="2"
     inkscape:window-width="1366"
     inkscape:window-height="715"
     id="namedview16"
     showgrid="false"
     units="px"
     inkscape:zoom="4.28125"
     inkscape:cx="64"
     inkscape:cy="64"
     inkscape:window-x="-8"
     inkscape:window-y="-8"
     inkscape:window-maximized="1"
     inkscape:current-layer="svg14" />
  <path
     fill="#1572b6"
     d="M 6.689607,43.201664 2.838,0 h 42.324 l -3.855438,43.195151 -17.332229,4.805123 z"
     id="path2"
     style="stroke-width:0.383092" />
  <path
     fill="#33a9dc"
     d="M 24.000383,44.327571 38.005842,40.444551 41.300816,3.532108 H 24.000383 Z"
     id="path4"
     style="stroke-width:0.383092" />
  <path
     fill="#ffffff"
     d="m 24.000383,19.184096 h 7.011349 L 31.49596,13.758365 H 24.000383 V 8.45982 H 37.286779 L 37.159592,9.881474 35.857079,24.482641 H 24.000383 Z"
     id="path6"
     style="stroke-width:0.383092" />
  <path
     fill="#ebebeb"
     d="m 24.031797,32.94476 -0.02337,0.0069 -5.900765,-1.593279 -0.377346,-4.225888 h -5.318083 l 0.742049,8.319609 10.853379,3.012252 0.02414,-0.0069 z"
     id="path8"
     style="stroke-width:0.383092" />
  <path
     fill="#ffffff"
     d="m 30.561216,24.258533 -0.638231,7.095629 -5.909577,1.595195 v 5.512693 l 10.86219,-3.010337 0.07968,-0.895285 L 35.877,24.258533 Z"
     id="path10"
     style="stroke-width:0.383092" />
  <path
     fill="#ebebeb"
     d="m 24.018388,8.45982 v 5.298545 H 11.220052 L 11.113936,12.567715 10.872588,9.881474 10.745784,8.45982 Z m -0.01801,10.725043 v 5.298545 h -5.826441 l -0.106116,-1.19065 -0.241731,-2.686241 -0.12642,-1.421654 z"
     id="path12"
     style="stroke-width:0.383092" />
</svg>
