<?xml version="1.0" encoding="UTF-8" standalone="no"?>
<svg
   xmlns:dc="http://purl.org/dc/elements/1.1/"
   xmlns:cc="http://creativecommons.org/ns#"
   xmlns:rdf="http://www.w3.org/1999/02/22-rdf-syntax-ns#"
   xmlns:svg="http://www.w3.org/2000/svg"
   xmlns="http://www.w3.org/2000/svg"
   xmlns:sodipodi="http://sodipodi.sourceforge.net/DTD/sodipodi-0.dtd"
   xmlns:inkscape="http://www.inkscape.org/namespaces/inkscape"
   viewBox="0 0 48 48"
   version="1.1"
   id="svg4"
   sodipodi:docname="git.svg"
   width="48"
   height="48"
   inkscape:version="1.0.2-2 (e86c870879, 2021-01-15)">
  <metadata
     id="metadata10">
    <rdf:RDF>
      <cc:Work
         rdf:about="">
        <dc:format>image/svg+xml</dc:format>
        <dc:type
           rdf:resource="http://purl.org/dc/dcmitype/StillImage" />
        <dc:title></dc:title>
      </cc:Work>
    </rdf:RDF>
  </metadata>
  <defs
     id="defs8" />
  <sodipodi:namedview
     pagecolor="#ffffff"
     bordercolor="#666666"
     borderopacity="1"
     objecttolerance="10"
     gridtolerance="10"
     guidetolerance="10"
     inkscape:pageopacity="0"
     inkscape:pageshadow="2"
     inkscape:window-width="1366"
     inkscape:window-height="715"
     id="namedview6"
     showgrid="false"
     inkscape:zoom="4.28125"
     inkscape:cx="64"
     inkscape:cy="64"
     inkscape:window-x="-8"
     inkscape:window-y="-8"
     inkscape:window-maximized="1"
     inkscape:current-layer="svg4" />
  <path
     fill="#f34f29"
     d="M 47.094128,21.86161 26.136915,0.905157 c -1.206116,-1.206876 -3.163583,-1.206876 -4.3716,0 l -4.351447,4.352208 5.5203,5.520299 c 1.283304,-0.433091 2.754066,-0.142589 3.776527,0.879872 1.027784,1.028924 1.316004,2.512234 0.872266,3.799721 l 5.320294,5.320674 c 1.287107,-0.443738 2.772698,-0.157038 3.800102,0.872647 1.437301,1.43616 1.437301,3.764359 0,5.20128 -1.437301,1.4373 -3.764739,1.4373 -5.202801,0 -1.080637,-1.081398 -1.347944,-2.668893 -0.800401,-4.000488 l -4.961349,-4.961349 -7.61e-4,13.057763 c 0.35058,0.173009 0.681007,0.404194 0.97303,0.695076 1.43654,1.43616 1.43654,3.763599 0,5.2028 -1.436921,1.43616 -3.76588,1.43616 -5.20128,0 -1.43654,-1.438821 -1.43654,-3.76626 0,-5.2028 0.355143,-0.354762 0.7658,-0.62283 1.204215,-0.802303 V 17.661878 c -0.438415,-0.179472 -0.848312,-0.445639 -1.204215,-0.802683 -1.088242,-1.087481 -1.350226,-2.684482 -0.792036,-4.0214 L 15.275408,7.395445 0.90544275,21.764649 c -1.207257,1.208018 -1.207257,3.165484 0,4.372741 L 21.863037,47.093843 c 1.206876,1.206876 3.163582,1.206876 4.37236,0 L 47.094509,26.234731 c 1.206876,-1.207637 1.206876,-3.166244 -3.81e-4,-4.373121 z"
     id="path2"
     style="stroke-width:0.380238" />
</svg>
