<?xml version="1.0" encoding="UTF-8" standalone="no"?>
<svg
   xmlns:dc="http://purl.org/dc/elements/1.1/"
   xmlns:cc="http://creativecommons.org/ns#"
   xmlns:rdf="http://www.w3.org/1999/02/22-rdf-syntax-ns#"
   xmlns:svg="http://www.w3.org/2000/svg"
   xmlns="http://www.w3.org/2000/svg"
   xmlns:sodipodi="http://sodipodi.sourceforge.net/DTD/sodipodi-0.dtd"
   xmlns:inkscape="http://www.inkscape.org/namespaces/inkscape"
   viewBox="0 0 48 48"
   version="1.1"
   id="svg12"
   sodipodi:docname="googlecloud.svg"
   width="48"
   height="48"
   inkscape:version="1.0.2-2 (e86c870879, 2021-01-15)">
  <metadata
     id="metadata18">
    <rdf:RDF>
      <cc:Work
         rdf:about="">
        <dc:format>image/svg+xml</dc:format>
        <dc:type
           rdf:resource="http://purl.org/dc/dcmitype/StillImage" />
        <dc:title></dc:title>
      </cc:Work>
    </rdf:RDF>
  </metadata>
  <defs
     id="defs16" />
  <sodipodi:namedview
     pagecolor="#ffffff"
     bordercolor="#666666"
     borderopacity="1"
     objecttolerance="10"
     gridtolerance="10"
     guidetolerance="10"
     inkscape:pageopacity="0"
     inkscape:pageshadow="2"
     inkscape:window-width="1366"
     inkscape:window-height="715"
     id="namedview14"
     showgrid="false"
     inkscape:zoom="5.6087443"
     inkscape:cx="64.018021"
     inkscape:cy="39.802917"
     inkscape:window-x="-8"
     inkscape:window-y="-8"
     inkscape:window-maximized="1"
     inkscape:current-layer="svg12" />
  <g
     id="g10"
     transform="matrix(0.40983362,0,0,0.40983362,-2.2365277,-1.0810308)">
    <path
       fill="#ea4535"
       d="M 80.6,40.3 H 81 l -0.2,-0.2 14,-14 V 25.8 C 83,15.4 66.7,11.8 51.6,16.3 36.5,20.8 24.9,32.8 20.7,48 c 0.2,-0.1 0.5,-0.2 0.8,-0.2 5.2,-3.4 11.4,-5.4 17.9,-5.4 2.2,0 4.3,0.2 6.4,0.6 0.1,-0.1 0.2,-0.1 0.3,-0.1 9,-9.9 24.2,-11.1 34.6,-2.6 z"
       id="path2" />
    <path
       fill="#557ebf"
       d="M 108.1,47.8 C 105.8,39.3 101,31.6 94.3,25.7 L 80,39.9 c 6,4.9 9.5,12.3 9.3,20 v 2.5 c 16.9,0 16.9,25.2 0,25.2 H 63.9 v 0 20 h -0.1 l 0.1,0.2 h 25.4 c 14.6,0.1 27.5,-9.3 31.8,-23.1 4.3,-13.8 -1,-28.8 -13,-36.9 z"
       id="path4" />
    <path
       fill="#36a852"
       d="M 39,107.9 H 65.3 V 87.7 H 39 c -1.9,0 -3.7,-0.4 -5.4,-1.1 l -15.2,14.6 v 0.2 c 6,4.3 13.2,6.6 20.7,6.6 v 0 z"
       id="path6" />
    <path
       fill="#f9bc15"
       d="M 40.2,41.9 C 25.3,42 12.1,51.2 7.3,64.7 2.5,78.3 7.3,93.2 19.1,102 L 34.7,87.1 c -8.6,-3.7 -10.6,-14.5 -4,-20.8 6.6,-6.4 17.8,-4.4 21.7,3.8 L 68,55.2 C 61.4,46.9 51.1,42 40.2,42.1 v 0 z"
       id="path8" />
  </g>
</svg>
