<?xml version="1.0" encoding="UTF-8" standalone="no"?>
<svg
   xmlns:dc="http://purl.org/dc/elements/1.1/"
   xmlns:cc="http://creativecommons.org/ns#"
   xmlns:rdf="http://www.w3.org/1999/02/22-rdf-syntax-ns#"
   xmlns:svg="http://www.w3.org/2000/svg"
   xmlns="http://www.w3.org/2000/svg"
   xmlns:sodipodi="http://sodipodi.sourceforge.net/DTD/sodipodi-0.dtd"
   xmlns:inkscape="http://www.inkscape.org/namespaces/inkscape"
   viewBox="0 0 48 48"
   version="1.1"
   id="svg4"
   sodipodi:docname="gradle.svg"
   width="48"
   height="48"
   inkscape:version="1.0.2-2 (e86c870879, 2021-01-15)">
  <metadata
     id="metadata10">
    <rdf:RDF>
      <cc:Work
         rdf:about="">
        <dc:format>image/svg+xml</dc:format>
        <dc:type
           rdf:resource="http://purl.org/dc/dcmitype/StillImage" />
        <dc:title></dc:title>
      </cc:Work>
    </rdf:RDF>
  </metadata>
  <defs
     id="defs8" />
  <sodipodi:namedview
     pagecolor="#ffffff"
     bordercolor="#666666"
     borderopacity="1"
     objecttolerance="10"
     gridtolerance="10"
     guidetolerance="10"
     inkscape:pageopacity="0"
     inkscape:pageshadow="2"
     inkscape:window-width="1366"
     inkscape:window-height="715"
     id="namedview6"
     showgrid="false"
     inkscape:zoom="4.28125"
     inkscape:cx="64"
     inkscape:cy="64"
     inkscape:window-x="-8"
     inkscape:window-y="-8"
     inkscape:window-maximized="1"
     inkscape:current-layer="svg4" />
  <path
     fill="#02303a"
     d="m 37.634421,43.451508 c -0.115538,0 -0.192564,0 -0.26959,0 -1.733077,0 -3.466155,0 -5.199233,0 -0.192564,0 -0.308102,-0.07702 -0.423641,-0.192564 -1.232411,-1.540514 -2.58036,-2.965489 -4.197899,-4.082361 -0.80877,-0.577692 -1.656052,-1.078359 -2.618873,-1.347949 -0.770257,-0.231077 -1.579027,-0.346616 -2.387796,-0.154052 -0.80877,0.192565 -1.502001,0.654719 -2.079694,1.232411 -0.731743,0.731744 -1.23241,1.617539 -1.617539,2.58036 -0.231077,0.577693 -0.423641,1.155386 -0.616205,1.733078 -0.03851,0.07703 -0.03851,0.154052 -0.07703,0.231077 -1.463488,0 -2.888463,0 -4.390463,0 -0.03851,-0.231077 -0.07703,-0.462154 -0.115539,-0.731744 -0.154051,-0.770257 -0.385128,-1.540513 -0.770257,-2.233744 -0.26959,-0.53918 -0.616205,-1.001334 -1.078359,-1.386463 -0.500667,-0.423641 -1.07836,-0.654718 -1.733078,-0.654718 -0.5006671,0 -0.9243081,0.192564 -1.3479491,0.462154 -0.577693,0.385129 -1.039847,0.885796 -1.386462,1.463488 -0.53918,0.847283 -0.847283,1.810104 -1.116873,2.772924 -0.03851,0.07703 -0.03851,0.192565 -0.07702,0.308103 -1.925642,0 -3.812771,0 -5.73841304,0 -0.03851,-0.26959 -0.07703,-0.577692 -0.115539,-0.847282 -0.192564,-1.810104 -0.308102,-3.620207 -0.26959,-5.43031 0.03851,-2.118207 0.26959,-4.1979 0.770257,-6.277593 0.46215404,-1.887129 1.11687204,-3.65872 2.11820604,-5.276259 1.386462,-2.195232 3.235079,-3.774258 5.661387,-4.737079 0.07703,-0.03851 0.115539,-0.03851 0.192565,-0.07703 0,0 0.03851,0 0.07702,0 0.03851,0.07703 0.07703,0.154052 0.115539,0.231077 0.693231,1.540514 1.4249751,3.042515 2.3107701,4.428977 0.53918,0.885795 1.309437,1.540513 2.272258,1.848616 1.039846,0.346616 2.04118,0.231077 3.042514,-0.192564 0.885795,-0.385129 1.617539,-0.962821 2.31077,-1.617539 0.80877,-0.770257 1.463488,-1.61754 2.118206,-2.541848 0.03851,-0.03851 0.03851,-0.07703 0.03851,-0.115538 -0.07703,0.07702 -0.154051,0.154051 -0.26959,0.231077 -0.962821,0.962821 -2.002667,1.810103 -3.196565,2.464821 -0.577693,0.346616 -1.232411,0.616206 -1.887129,0.731744 -0.962821,0.192565 -1.848617,0.07703 -2.618873,-0.616205 -0.308103,-0.26959 -0.53918,-0.577693 -0.770257,-0.885795 -1.155385,-1.810104 -2.156719,-3.697233 -3.0810271,-5.622875 -0.192564,-0.385128 -0.346616,-0.770256 -0.385129,-1.23241 -0.07702,-0.654719 0.115539,-1.232411 0.577693,-1.733078 0.346615,-0.346616 0.7317441,-0.616206 1.1938981,-0.847283 0.847282,-0.423641 1.733078,-0.731744 2.618873,-1.039846 1.309436,-0.423642 2.657386,-0.731744 4.043848,-0.924308 1.579026,-0.231077 3.196565,-0.26959 4.814105,-0.07703 3.466155,0.346615 6.547182,1.617539 9.358619,3.65872 0.962821,0.693231 1.964155,1.270923 3.11954,1.617539 4.583028,1.463488 8.241748,-1.694565 9.08903,-4.929644 0.231077,-0.885795 0.308103,-1.77159 -0.03851,-2.618873 C 43.10324,9.7142535 42.217445,8.7129195 40.79247,8.3277915 c -1.078359,-0.26959 -2.118206,-0.154052 -3.11954,0.385128 -0.192564,0.115539 -0.385128,0.192564 -0.577692,0.26959 -0.462155,0.154051 -0.770257,0.03851 -1.001334,-0.385128 -0.308103,-0.53918 -0.53918,-1.07836 -0.80877,-1.656052 -0.115538,-0.231077 -0.07703,-0.423642 0.03851,-0.616206 0.115539,-0.26959 0.308103,-0.462154 0.53918,-0.654718 0.577692,-0.462154 1.270923,-0.770257 2.04118,-0.924308 1.887129,-0.423641 3.65872,-0.154051 5.353285,0.693231 1.347949,0.654718 2.387796,1.656052 3.158052,2.965488 0.731744,1.232411 1.232411,2.5418485 1.463488,3.9668235 0.154052,1.116872 0.154052,2.195232 0.03851,3.312104 -0.231077,1.925642 -0.770257,3.735745 -1.540513,5.507336 -1.001334,2.31077 -2.156719,4.544515 -3.581694,6.624208 -0.693231,1.001334 -1.424975,1.964155 -2.118207,2.926976 -0.731743,1.039846 -1.463487,2.079693 -2.002667,3.235078 -0.731744,1.502001 -1.155385,3.042514 -1.309437,4.698566 -0.115538,1.424975 -0.03851,2.811437 0.192565,4.236412 0.03851,0.231077 0.07703,0.385129 0.07703,0.53918 z M 34.476369,23.655909 c 0.115538,0.924308 -0.192565,1.540514 -1.039847,1.887129 -0.616205,0.231077 -1.386462,0.03851 -1.771591,-0.500666 -0.616205,-0.80877 -0.423641,-1.540514 0.26959,-2.233745 -0.693231,-0.231077 -1.386462,-0.462154 -2.04118,-0.654718 -0.154052,0.385128 -0.231077,0.962821 -0.192564,1.424975 0.07703,0.924308 0.423641,1.694565 1.193898,2.195231 0.808769,0.53918 1.733077,0.770257 2.695898,0.577693 1.001334,-0.192564 1.771591,-0.770257 2.310771,-1.617539 0.115538,-0.154052 0.192564,-0.308103 0.192564,-0.53918 -0.53918,-0.154051 -1.07836,-0.346615 -1.617539,-0.53918 z"
     id="path2"
     style="stroke-width:0.385128" />
</svg>
