<?xml version="1.0" encoding="UTF-8" standalone="no"?>
<svg
   xmlns:dc="http://purl.org/dc/elements/1.1/"
   xmlns:cc="http://creativecommons.org/ns#"
   xmlns:rdf="http://www.w3.org/1999/02/22-rdf-syntax-ns#"
   xmlns:svg="http://www.w3.org/2000/svg"
   xmlns="http://www.w3.org/2000/svg"
   xmlns:sodipodi="http://sodipodi.sourceforge.net/DTD/sodipodi-0.dtd"
   xmlns:inkscape="http://www.inkscape.org/namespaces/inkscape"
   viewBox="0 0 48 48"
   version="1.1"
   id="svg9"
   sodipodi:docname="intellij.svg"
   width="48"
   height="48"
   inkscape:version="1.0.2-2 (e86c870879, 2021-01-15)">
  <metadata
     id="metadata15">
    <rdf:RDF>
      <cc:Work
         rdf:about="">
        <dc:format>image/svg+xml</dc:format>
        <dc:type
           rdf:resource="http://purl.org/dc/dcmitype/StillImage" />
        <dc:title></dc:title>
      </cc:Work>
    </rdf:RDF>
  </metadata>
  <defs
     id="defs13" />
  <sodipodi:namedview
     pagecolor="#ffffff"
     bordercolor="#666666"
     borderopacity="1"
     objecttolerance="10"
     gridtolerance="10"
     guidetolerance="10"
     inkscape:pageopacity="0"
     inkscape:pageshadow="2"
     inkscape:window-width="1366"
     inkscape:window-height="715"
     id="namedview11"
     showgrid="false"
     inkscape:zoom="4.28125"
     inkscape:cx="64"
     inkscape:cy="54.656934"
     inkscape:window-x="-8"
     inkscape:window-y="-8"
     inkscape:window-maximized="1"
     inkscape:current-layer="svg9" />
  <g
     id="original"
     transform="matrix(0.40480365,0,0,0.40480365,-1.8413516,-1.9147213)">
    <path
       fill="#fa930d"
       d="M 5.55,64.73 A 17.08,17.08 0 1 0 22.63,47.64 17.11,17.11 0 0 0 5.55,64.73 Z"
       id="path2" />
    <path
       fill="#136ba2"
       d="m 107.48,4.73 c -9.39,0 -15,7.56 -15,20.23 v 77.8 c 0,12.66 5.59,20.23 15,20.23 9.41,0 15,-7.56 15,-20.23 v -26 0 V 25 c -0.03,-12.7 -5.63,-20.27 -15,-20.27 z"
       id="path4" />
    <path
       fill="#136ba2"
       d="M 81.25,6.38 H 19.88 v 0 a 14.92,14.92 0 0 0 0,29.81 v 0.11 h 31.41 v 27.2 c 0,0.22 0,0.43 0,0.66 v 0 c 0,0.18 0,0.36 0,0.54 A 28.7,28.7 0 0 1 22.66,93.4 c -0.26,0 -0.51,0 -0.77,0 l -0.08,0.1 c -0.42,0 -0.85,-0.07 -1.29,-0.07 a 14.94,14.94 0 1 0 0,29.87 c 0.45,0 0.9,0 1.34,-0.07 v 0.05 h 0.78 A 58.65,58.65 0 0 0 81.25,64.73 c 0,-0.17 0,-0.35 0,-0.54 v 0 c 0,-1.27 0,-4.8 0,-9.59 0,0 0,-0.07 0,-0.11 0,-0.04 0,-46.78 0,-48.11 z"
       id="path6" />
  </g>
</svg>
