<?xml version="1.0" encoding="UTF-8" standalone="no"?>
<svg
   xmlns:dc="http://purl.org/dc/elements/1.1/"
   xmlns:cc="http://creativecommons.org/ns#"
   xmlns:rdf="http://www.w3.org/1999/02/22-rdf-syntax-ns#"
   xmlns:svg="http://www.w3.org/2000/svg"
   xmlns="http://www.w3.org/2000/svg"
   xmlns:sodipodi="http://sodipodi.sourceforge.net/DTD/sodipodi-0.dtd"
   xmlns:inkscape="http://www.inkscape.org/namespaces/inkscape"
   viewBox="0 0 48 48"
   version="1.1"
   id="svg12"
   sodipodi:docname="java.svg"
   width="48"
   height="48"
   inkscape:version="1.0.2-2 (e86c870879, 2021-01-15)">
  <metadata
     id="metadata18">
    <rdf:RDF>
      <cc:Work
         rdf:about="">
        <dc:format>image/svg+xml</dc:format>
        <dc:type
           rdf:resource="http://purl.org/dc/dcmitype/StillImage" />
        <dc:title></dc:title>
      </cc:Work>
    </rdf:RDF>
  </metadata>
  <defs
     id="defs16" />
  <sodipodi:namedview
     pagecolor="#ffffff"
     bordercolor="#666666"
     borderopacity="1"
     objecttolerance="10"
     gridtolerance="10"
     guidetolerance="10"
     inkscape:pageopacity="0"
     inkscape:pageshadow="2"
     inkscape:window-width="1366"
     inkscape:window-height="715"
     id="namedview14"
     showgrid="false"
     inkscape:zoom="4.28125"
     inkscape:cx="53.255474"
     inkscape:cy="41.576642"
     inkscape:window-x="-8"
     inkscape:window-y="-8"
     inkscape:window-maximized="1"
     inkscape:current-layer="svg12" />
  <path
     fill="#0074bd"
     d="m 17.700091,37.120382 c 0,0 -1.833081,1.066701 1.306268,1.426627 3.803827,0.434525 5.747655,0.37223 9.938324,-0.419913 0,0 1.104002,0.690241 2.642914,1.288579 -9.397667,4.026088 -21.267899,-0.233413 -13.887506,-2.295293 z m -1.148992,-5.25468 c 0,0 -2.056497,1.522376 1.085544,1.847694 4.063388,0.419528 7.271569,0.453752 12.825802,-0.615258 0,0 0.76638,0.778685 1.973438,1.203982 C 21.07593,37.624508 8.4231677,34.563604 16.551099,31.865702 Z"
     id="path2"
     style="stroke-width:0.384536" />
  <path
     fill="#ea2d2e"
     d="m 26.231015,22.950627 c 2.316827,2.666755 -0.607566,5.064335 -0.607566,5.064335 0,0 5.879165,-3.034371 3.179725,-6.835891 -2.522169,-3.543496 -4.455615,-5.303516 6.012215,-11.374565 0,3.84e-4 -16.431593,4.102995 -8.584374,13.146121 z"
     id="path4"
     style="stroke-width:0.384536" />
  <path
     fill="#0074bd"
     d="m 38.659592,41.007653 c 0,0 1.357027,1.118998 -1.495074,1.983819 -5.422722,1.642736 -22.574551,2.138018 -27.3381793,0.06576 -1.711568,-0.74523 1.4993053,-1.778478 2.5094803,-1.996509 1.053243,-0.22803 1.654657,-0.1865 1.654657,-0.1865 C 12.085871,39.533347 1.6803347,43.508292 8.7058017,44.64844 27.863753,47.75395 43.628178,43.249884 38.659592,41.007657 Z M 18.582601,26.420292 c 0,0 -8.7235773,2.072263 -3.088975,2.825568 2.379506,0.318396 7.120831,0.245334 11.540299,-0.125358 3.61079,-0.303399 7.23427,-0.951342 7.23427,-0.951342 0,0 -1.272044,0.545656 -2.193391,1.173988 -8.860471,2.33067 -25.9730783,1.245126 -21.046022,-1.137457 4.16529,-2.014582 7.553819,-1.785399 7.553819,-1.785399 z m 15.649448,8.747033 c 9.006209,-4.678646 4.841688,-9.175021 1.934983,-8.569377 -0.710622,0.148046 -1.029402,0.276865 -1.029402,0.276865 0,0 0.264561,-0.414914 0.769071,-0.593338 5.749962,-2.020735 10.171353,5.961456 -1.854615,9.123108 0,-7.69e-4 0.138048,-0.125743 0.179963,-0.237258 z"
     id="path6"
     style="stroke-width:0.384536" />
  <path
     fill="#ea2d2e"
     d="m 28.803174,0 c 0,0 4.986659,4.989735 -4.730942,12.660068 -7.793,6.154878 -1.77694,9.663381 -0.0027,13.673704 C 19.520091,22.229622 16.18309,18.616141 18.421472,15.253376 21.708483,10.318246 30.814672,7.924511 28.803166,0 Z"
     id="path8"
     style="stroke-width:0.384536" />
  <path
     fill="#0074bd"
     d="m 19.467802,47.849311 c 8.642823,0.552578 21.918533,-0.307628 22.232698,-4.39755 0,0 -0.604105,1.550448 -7.143519,2.780578 -7.377701,1.388943 -16.478891,1.227053 -21.87508,0.336084 0,3.84e-4 1.10554,0.915579 6.785901,1.280888 z"
     id="path10"
     style="stroke-width:0.384536" />
</svg>
