<?xml version="1.0" encoding="UTF-8" standalone="no"?>
<svg
   xmlns:dc="http://purl.org/dc/elements/1.1/"
   xmlns:cc="http://creativecommons.org/ns#"
   xmlns:rdf="http://www.w3.org/1999/02/22-rdf-syntax-ns#"
   xmlns:svg="http://www.w3.org/2000/svg"
   xmlns="http://www.w3.org/2000/svg"
   xmlns:sodipodi="http://sodipodi.sourceforge.net/DTD/sodipodi-0.dtd"
   xmlns:inkscape="http://www.inkscape.org/namespaces/inkscape"
   viewBox="0 0 48 48"
   version="1.1"
   id="svg6"
   sodipodi:docname="javascript.svg"
   width="48"
   height="48"
   inkscape:version="1.0.2-2 (e86c870879, 2021-01-15)">
  <metadata
     id="metadata12">
    <rdf:RDF>
      <cc:Work
         rdf:about="">
        <dc:format>image/svg+xml</dc:format>
        <dc:type
           rdf:resource="http://purl.org/dc/dcmitype/StillImage" />
        <dc:title></dc:title>
      </cc:Work>
    </rdf:RDF>
  </metadata>
  <defs
     id="defs10" />
  <sodipodi:namedview
     pagecolor="#ffffff"
     bordercolor="#666666"
     borderopacity="1"
     objecttolerance="10"
     gridtolerance="10"
     guidetolerance="10"
     inkscape:pageopacity="0"
     inkscape:pageshadow="2"
     inkscape:window-width="1366"
     inkscape:window-height="715"
     id="namedview8"
     showgrid="false"
     inkscape:zoom="4.28125"
     inkscape:cx="64"
     inkscape:cy="64"
     inkscape:window-x="-8"
     inkscape:window-y="-8"
     inkscape:window-maximized="1"
     inkscape:current-layer="svg6" />
  <path
     fill="#f0db4f"
     d="M 0,0 H 48 V 48.000384 H 0 Z"
     id="path2"
     style="stroke-width:0.383436" />
  <path
     fill="#323330"
     d="m 44.071702,36.552148 c -0.35161,-2.189801 -1.779524,-4.029142 -6.009202,-5.744249 -1.469325,-0.67523 -3.107362,-1.158742 -3.595475,-2.272239 -0.173313,-0.648006 -0.196319,-1.013037 -0.08666,-1.405292 0.314801,-1.273006 1.834356,-1.669862 3.038727,-1.304831 0.77569,0.259969 1.509969,0.857745 1.952838,1.81135 2.071319,-1.341258 2.067101,-1.332439 3.51342,-2.254218 -0.529525,-0.820936 -0.812117,-1.19977 -1.158743,-1.550997 -1.245782,-1.391488 -2.943251,-2.108129 -5.657975,-2.053297 l -1.41411,0.182898 c -1.355062,0.342408 -2.646473,1.053681 -3.403758,2.007286 -2.272239,2.57822 -1.624233,7.09049 1.140721,8.947469 2.723926,2.044478 6.72546,2.509586 7.236579,4.421396 0.497316,2.34049 -1.720092,3.098159 -3.924079,2.828987 -1.624233,-0.337806 -2.527608,-1.163343 -3.504218,-2.664494 -1.797546,1.040261 -1.797546,1.040261 -3.645706,2.103145 0.438267,0.958205 0.898773,1.391871 1.633436,2.222009 3.476994,3.52684 12.177914,3.353527 13.738497,-1.984663 0.06327,-0.183282 0.483512,-1.405675 0.145705,-3.29026 z M 26.094325,22.060967 h -4.489647 l -0.01841,11.607362 c 0,2.468558 0.127684,4.731595 -0.273773,5.42523 -0.656825,1.364263 -2.358896,1.195168 -3.134586,0.930598 -0.789494,-0.388037 -1.190951,-0.939801 -1.656058,-1.719709 -0.127684,-0.223926 -0.223543,-0.397239 -0.255752,-0.410659 l -3.650306,2.235429 c 0.606978,1.245782 1.50115,2.327071 2.646472,3.029525 1.71089,1.02684 4.010353,1.341641 6.415261,0.789493 1.565184,-0.455904 2.915644,-1.400306 3.622699,-2.837806 1.022239,-1.884586 0.802914,-4.165644 0.793712,-6.688651 0.02301,-4.116181 3.83e-4,-8.231595 3.83e-4,-12.360812 z"
     id="path4"
     style="stroke-width:0.383436" />
</svg>
