<?xml version="1.0" encoding="UTF-8" standalone="no"?>
<svg
   xmlns:dc="http://purl.org/dc/elements/1.1/"
   xmlns:cc="http://creativecommons.org/ns#"
   xmlns:rdf="http://www.w3.org/1999/02/22-rdf-syntax-ns#"
   xmlns:svg="http://www.w3.org/2000/svg"
   xmlns="http://www.w3.org/2000/svg"
   xmlns:sodipodi="http://sodipodi.sourceforge.net/DTD/sodipodi-0.dtd"
   xmlns:inkscape="http://www.inkscape.org/namespaces/inkscape"
   viewBox="0 0 48 48"
   version="1.1"
   id="svg8"
   sodipodi:docname="mysql.svg"
   width="48"
   height="48"
   inkscape:version="1.0.2-2 (e86c870879, 2021-01-15)">
  <metadata
     id="metadata14">
    <rdf:RDF>
      <cc:Work
         rdf:about="">
        <dc:format>image/svg+xml</dc:format>
        <dc:type
           rdf:resource="http://purl.org/dc/dcmitype/StillImage" />
        <dc:title></dc:title>
      </cc:Work>
    </rdf:RDF>
  </metadata>
  <defs
     id="defs12" />
  <sodipodi:namedview
     pagecolor="#ffffff"
     bordercolor="#666666"
     borderopacity="1"
     objecttolerance="10"
     gridtolerance="10"
     guidetolerance="10"
     inkscape:pageopacity="0"
     inkscape:pageshadow="2"
     inkscape:window-width="1366"
     inkscape:window-height="715"
     id="namedview10"
     showgrid="false"
     inkscape:zoom="4.28125"
     inkscape:cx="64"
     inkscape:cy="64"
     inkscape:window-x="-8"
     inkscape:window-y="-8"
     inkscape:window-maximized="1"
     inkscape:current-layer="svg8" />
  <path
     fill="#00618a"
     d="m 3.87e-4,34.242171 h 1.590197 v -6.279884 l 2.461941,5.474721 c 0.290323,0.662711 0.687873,0.896905 1.467874,0.896905 0.780002,0 1.162454,-0.234194 1.452778,-0.896905 l 2.46194,-5.474721 v 6.279884 h 1.590197 v -6.269433 c 0,-0.611614 -0.244645,-0.907744 -0.749421,-1.06026 -1.208131,-0.377033 -2.018714,-0.05071 -2.385682,0.764905 L 5.474335,33.080491 3.135104,27.676996 C 2.783232,26.861768 1.957553,26.535445 0.749421,26.912091 0.244646,27.064994 0,27.360737 0,27.972351 v 6.26982 z m 12.34764,-5.112011 h 1.58981 v 3.459878 c -0.01471,0.187743 0.06039,0.629034 0.931356,0.64297 0.444388,0.007 3.430459,0 3.45833,0 v -4.11988 h 1.593681 c 0.0074,0 -0.0015,5.618334 -0.0015,5.64156 0.0085,1.38581 -1.719101,1.686585 -2.515748,1.70981 h -5.02143 v -1.069937 c 0.0085,0 5.017947,0.0012 5.030334,-3.87e-4 1.023873,-0.108001 0.902711,-0.616647 0.902324,-0.787744 v -0.417291 h -3.379749 c -1.57239,-0.01432 -2.574199,-0.700647 -2.586973,-1.490326 -7.74e-4,-0.07239 0.03445,-3.533814 -3.87e-4,-3.568653 z"
     id="path2"
     style="stroke-width:0.387098" />
  <path
     fill="#e48e00"
     d="m 21.147142,34.242171 h 4.572397 c 0.535356,0 1.055615,-0.111871 1.468261,-0.30542 0.687873,-0.315872 1.024261,-0.744002 1.024261,-1.305293 v -1.162067 c 0,-0.458711 -0.382066,-0.887228 -1.131487,-1.172132 -0.397549,-0.15329 -0.887227,-0.234194 -1.361422,-0.234194 H 23.79218 c -0.642195,0 -0.948002,-0.193548 -1.02426,-0.621678 -0.0151,-0.0511 -0.0151,-0.09174 -0.0151,-0.142839 v -0.723873 c 0,-0.04064 0,-0.08168 0.0151,-0.132387 0.07626,-0.326324 0.244646,-0.418066 0.810582,-0.469163 l 0.152904,-0.01006 h 4.541816 v -1.059877 h -4.465171 c -0.642195,0 -0.978583,0.04064 -1.28439,0.132387 -0.948002,0.295743 -1.361422,0.764518 -1.361422,1.580132 v 0.927486 c 0,0.713808 0.81097,1.325422 2.171618,1.468261 0.15329,0.0097 0.305807,0.02052 0.45871,0.02052 h 1.651746 c 0.06116,0 0.122323,0 0.168387,0.0097 0.504775,0.04064 0.718453,0.132775 0.871744,0.315872 0.09174,0.09174 0.121936,0.183871 0.121936,0.285291 v 0.927873 c 0,0.111871 -0.07626,0.25471 -0.229162,0.377033 -0.13742,0.122323 -0.366969,0.204 -0.672776,0.224516 l -0.168387,0.01006 h -4.388913 z m 16.98623,-1.844907 c 0,1.090454 0.810582,1.702068 2.446457,1.824778 0.152903,0.01006 0.305807,0.02013 0.458711,0.02013 h 4.144266 v -1.059874 h -4.17446 c -0.932905,0 -1.28439,-0.234581 -1.28439,-0.795486 v -5.484399 h -1.590197 v 5.494851 z m -8.906342,0.05497 v -3.780008 c 0,-0.960002 0.674324,-1.542584 2.007489,-1.726456 0.137806,-0.02052 0.291484,-0.03058 0.428904,-0.03058 h 3.018974 c 0.153291,0 0.291097,0.01006 0.444001,0.03058 1.333164,0.183872 2.007875,0.766067 2.007875,1.726456 v 3.780008 c 0,0.779614 -0.286452,1.196131 -0.946454,1.467874 l 1.566972,1.414067 h -1.846843 l -1.267358,-1.14426 -1.275873,0.0809 h -1.701294 c -0.291098,0 -0.597292,-0.04064 -0.934454,-0.132774 -1.011486,-0.275614 -1.501939,-0.807099 -1.501939,-1.68581 z m 1.716391,-0.09174 c 0,0.0511 0.0151,0.10258 0.03058,0.163742 0.09174,0.439356 0.505936,0.684388 1.133809,0.684388 h 1.444648 l -1.32697,-1.198071 h 1.846843 l 1.157035,1.045164 c 0.213678,-0.114194 0.353807,-0.287614 0.402968,-0.510969 0.0151,-0.0511 0.0151,-0.102194 0.0151,-0.153291 v -3.62633 c 0,-0.04064 0,-0.09213 -0.0151,-0.143226 -0.09213,-0.408775 -0.505936,-0.643356 -1.118712,-0.643356 h -2.406198 c -0.704518,0 -1.16439,0.306581 -1.16439,0.786582 v 3.595363 z"
     id="path4"
     style="stroke-width:0.387098" />
  <path
     fill="#00618a"
     d="m 46.581777,25.143055 c -0.977421,-0.02671 -1.724133,0.06426 -2.362844,0.333291 -0.181548,0.07664 -0.47071,0.07858 -0.50013,0.305807 0.09948,0.104903 0.114968,0.260904 0.194323,0.38942 0.152517,0.246581 0.409937,0.577163 0.639486,0.750195 0.250452,0.189291 0.509033,0.39213 0.778453,0.55626 0.478065,0.291871 1.01226,0.458323 1.473293,0.750195 0.271356,0.172645 0.540776,0.38942 0.805937,0.58413 0.131227,0.09561 0.218711,0.24542 0.389421,0.30542 v -0.02748 c -0.08942,-0.113807 -0.112646,-0.270194 -0.19471,-0.38942 l -0.36155,-0.361549 c -0.35342,-0.469163 -0.801679,-0.880647 -1.27897,-1.222842 -0.38013,-0.272903 -1.23097,-0.641807 -1.38968,-1.08426 l -0.02787,-0.02748 c 0.269419,-0.03058 0.585291,-0.128129 0.833808,-0.19471 0.418065,-0.112258 0.791614,-0.08323 1.223228,-0.19471 l 0.583742,-0.167234 v -0.11071 C 47.169778,25.113635 47.013778,24.817119 46.7761,24.614667 46.154034,24.08473 45.474291,23.555181 44.774806,23.113115 44.386934,22.868469 43.90732,22.709372 43.495835,22.501888 43.358028,22.431828 43.114931,22.395823 43.023189,22.279307 42.806801,22.00408 42.689511,21.655305 42.522672,21.334402 42.174284,20.662787 41.831315,19.92885 41.522024,19.221623 41.311443,18.739686 41.173637,18.264331 40.910797,17.831942 39.648472,15.756712 38.289759,14.504064 36.18511,13.273094 35.737238,13.011029 35.198011,12.908061 34.62859,12.772964 l -0.917421,-0.05574 c -0.186194,-0.07781 -0.380517,-0.306194 -0.555872,-0.416904 -0.69755,-0.440517 -2.485941,-1.398584 -3.002329,-0.138581 -0.325936,0.795098 0.487743,1.570842 0.778453,1.973811 0.204001,0.282581 0.465679,0.599227 0.611614,0.917034 0.096,0.209032 0.112259,0.418452 0.19471,0.639485 0.201678,0.544259 0.377808,1.136906 0.639099,1.639745 0.132,0.254711 0.277936,0.522969 0.444775,0.750583 0.102194,0.139355 0.277936,0.20129 0.30542,0.416904 -0.171484,0.24 -0.181549,0.613162 -0.277936,0.917034 -0.434324,1.369938 -0.270582,3.072781 0.361549,4.086589 0.193936,0.311614 0.650711,0.97897 1.278583,0.722712 0.549292,-0.223743 0.426969,-0.917035 0.58413,-1.529036 0.03561,-0.138194 0.01355,-0.240388 0.08323,-0.333291 v 0.02787 l 0.500518,1.000647 c 0.370452,0.596518 1.027357,1.219358 1.58439,1.640133 0.288775,0.217936 0.516388,0.595356 0.88955,0.722711 v -0.02826 h -0.02748 c -0.07277,-0.112645 -0.18542,-0.159097 -0.278324,-0.250065 -0.217549,-0.213291 -0.459485,-0.478066 -0.639098,-0.722711 -0.506711,-0.687486 -0.954195,-1.44039 -1.362196,-2.223876 -0.19471,-0.373936 -0.363872,-0.786582 -0.528001,-1.167486 -0.06348,-0.14671 -0.06271,-0.368904 -0.194323,-0.444388 -0.180388,0.27871 -0.444776,0.504388 -0.584131,0.833808 -0.222194,0.526453 -0.250839,1.168647 -0.333291,1.834455 l -0.05574,0.02748 c -0.387484,-0.09329 -0.523356,-0.492001 -0.667356,-0.833808 -0.363872,-0.864389 -0.431614,-2.256779 -0.111097,-3.252007 0.08284,-0.257807 0.457162,-1.068776 0.30542,-1.306841 -0.07239,-0.237291 -0.311226,-0.374324 -0.444388,-0.55626 -0.165291,-0.224129 -0.330581,-0.519098 -0.444775,-0.778453 -0.298065,-0.673937 -0.437033,-1.430713 -0.750195,-2.112392 -0.150194,-0.325936 -0.403356,-0.655356 -0.611615,-0.944905 -0.230323,-0.321291 -0.488517,-0.55742 -0.667356,-0.945292 -0.06348,-0.137807 -0.149807,-0.35884 -0.05574,-0.500517 0.02981,-0.09561 0.07277,-0.135484 0.167226,-0.166839 0.161033,-0.124259 0.610066,0.04142 0.778066,0.111097 0.445937,0.185419 0.817938,0.361549 1.195745,0.611614 0.181162,0.120387 0.364259,0.352646 0.583743,0.416904 h 0.250065 c 0.391356,0.08981 0.829937,0.02748 1.195358,0.138581 0.646453,0.196645 1.225551,0.502065 1.751229,0.834195 1.602197,1.011873 2.911748,2.451876 3.808266,4.169816 0.144001,0.276774 0.20671,0.540388 0.333291,0.833808 0.256259,0.591485 0.579098,1.200389 0.833809,1.7791 0.254323,0.577163 0.502452,1.159745 0.862066,1.640133 0.188904,0.252388 0.91897,0.387872 1.250712,0.528001 0.232646,0.09832 0.61355,0.200904 0.833809,0.333291 0.420775,0.253936 0.828775,0.556259 1.223228,0.834195 0.197033,0.14013 0.803615,0.444776 0.833808,0.696002 z M 34.156331,14.552452 c -0.203613,-0.0039 -0.348,0.02245 -0.500517,0.05574 v 0.02748 h 0.02787 c 0.09716,0.200129 0.268646,0.328645 0.389033,0.500517 l 0.278323,0.583743 0.02748,-0.02748 c 0.172259,-0.121161 0.25084,-0.315097 0.250065,-0.611614 -0.06929,-0.07278 -0.07935,-0.163742 -0.138968,-0.250065 -0.07897,-0.116129 -0.233032,-0.181162 -0.333291,-0.278323 z"
     id="path6"
     style="stroke-width:0.387098" />
</svg>
