<?xml version="1.0" encoding="UTF-8" standalone="no"?>
<svg
   xmlns:dc="http://purl.org/dc/elements/1.1/"
   xmlns:cc="http://creativecommons.org/ns#"
   xmlns:rdf="http://www.w3.org/1999/02/22-rdf-syntax-ns#"
   xmlns:svg="http://www.w3.org/2000/svg"
   xmlns="http://www.w3.org/2000/svg"
   xmlns:sodipodi="http://sodipodi.sourceforge.net/DTD/sodipodi-0.dtd"
   xmlns:inkscape="http://www.inkscape.org/namespaces/inkscape"
   viewBox="0 0 48 48"
   version="1.1"
   id="svg23"
   sodipodi:docname="python.svg"
   width="48"
   height="48"
   inkscape:version="1.0.2-2 (e86c870879, 2021-01-15)">
  <metadata
     id="metadata29">
    <rdf:RDF>
      <cc:Work
         rdf:about="">
        <dc:format>image/svg+xml</dc:format>
        <dc:type
           rdf:resource="http://purl.org/dc/dcmitype/StillImage" />
        <dc:title></dc:title>
      </cc:Work>
    </rdf:RDF>
  </metadata>
  <defs
     id="defs27" />
  <sodipodi:namedview
     pagecolor="#ffffff"
     bordercolor="#666666"
     borderopacity="1"
     objecttolerance="10"
     gridtolerance="10"
     guidetolerance="10"
     inkscape:pageopacity="0"
     inkscape:pageshadow="2"
     inkscape:window-width="1366"
     inkscape:window-height="715"
     id="namedview25"
     showgrid="false"
     inkscape:zoom="4.28125"
     inkscape:cx="33.635036"
     inkscape:cy="46.248175"
     inkscape:window-x="-8"
     inkscape:window-y="-8"
     inkscape:window-maximized="1"
     inkscape:current-layer="svg23" />
  <linearGradient
     id="a"
     gradientUnits="userSpaceOnUse"
     x1="70.251999"
     y1="1237.476"
     x2="170.659"
     y2="1151.089"
     gradientTransform="matrix(0.21789084,0,0,-0.21982593,-12.076299,273.16847)">
    <stop
       offset="0"
       stop-color="#5A9FD4"
       id="stop2" />
    <stop
       offset="1"
       stop-color="#306998"
       id="stop4" />
  </linearGradient>
  <path
     fill="url(#a)"
     d="M 23.763842,3.0778437e-4 C 22.129854,0.00800778 20.570174,0.14698778 19.197036,0.39003478 15.152703,1.1044688 14.418918,2.5999048 14.418918,5.3581778 v 3.642222 h 9.556622 v 1.2140742 h -13.1435 c -2.7772379,0 -5.2092559,1.669206 -5.9701319,4.845846 -0.877756,3.639899 -0.916457,5.911692 0,9.71259 0.679216,2.829485 2.301593,4.845072 5.079217,4.845072 h 3.2861659 v -4.366331 c 0,-3.15458 2.72886,-5.936848 5.970132,-5.936848 h 9.545786 c 2.657262,0 4.778118,-2.188197 4.778118,-4.856296 V 5.3585648 c 0,-2.590308 -2.185101,-4.53584502 -4.778118,-4.96814302 -1.642502,-0.273234 -3.345766,-0.397467 -4.979367,-0.39011399563 z M 18.59561,2.9296438 c 0.986895,0 1.793439,0.819316 1.793439,1.827109 0,1.003536 -0.806157,1.815112 -1.793439,1.815112 -0.990764,0 -1.793052,-0.811576 -1.793052,-1.815112 -3.87e-4,-1.007793 0.802288,-1.827109 1.793052,-1.827109 z"
     id="path7"
     style="fill:url(#a);stroke-width:0.387017" />
  <linearGradient
     id="b"
     gradientUnits="userSpaceOnUse"
     x1="209.474"
     y1="1098.811"
     x2="173.62"
     y2="1149.537"
     gradientTransform="matrix(0.21789084,0,0,-0.21982593,-12.076299,273.16847)">
    <stop
       offset="0"
       stop-color="#FFD43B"
       id="stop9" />
    <stop
       offset="1"
       stop-color="#FFE873"
       id="stop11" />
  </linearGradient>
  <path
     fill="url(#b)"
     d="m 34.712954,10.214474 v 4.244033 c 0,3.289649 -2.789622,6.058759 -5.970132,6.058759 h -9.545786 c -2.614691,0 -4.778118,2.238122 -4.778118,4.856682 v 9.100717 c 0,2.589534 2.251667,4.113221 4.778118,4.85591 3.024928,0.888979 5.926011,1.049978 9.545786,0 2.405701,-0.697021 4.778118,-2.098798 4.778118,-4.85591 v -3.642609 h -9.5454 v -1.214461 h 14.324292 c 2.777237,0 3.812895,-1.937022 4.778891,-4.845072 0.997731,-2.99358 0.954772,-5.872603 0,-9.712591 -0.686569,-2.765239 -1.997397,-4.845845 -4.778891,-4.845845 h -3.586878 z m -5.369094,23.04573 c 0.991152,0 1.793439,0.811575 1.793439,1.815886 0,1.007019 -0.802674,1.826335 -1.793439,1.826335 -0.986895,0 -1.793052,-0.819316 -1.793052,-1.826335 0,-1.004311 0.806157,-1.815886 1.793052,-1.815886 z"
     id="path14"
     style="fill:url(#b);stroke-width:0.387017" />
  <radialGradient
     id="c"
     cx="1825.678"
     cy="444.45001"
     r="26.743"
     gradientTransform="matrix(0,-0.0928842,-0.40830344,0,205.50261,215.02258)"
     gradientUnits="userSpaceOnUse">
    <stop
       offset="0"
       stop-color="#B8B8B8"
       stop-opacity=".498"
       id="stop16" />
    <stop
       offset="1"
       stop-color="#7F7F7F"
       stop-opacity="0"
       id="stop18" />
  </radialGradient>
  <path
     opacity="0.444"
     fill="url(#c)"
     enable-background="new"
     d="m 36.890701,45.517049 c 0,1.371203 -5.734051,2.483104 -12.806796,2.483104 -7.073131,0 -12.807182,-1.111901 -12.807182,-2.483104 0,-1.37159 5.733664,-2.483491 12.807182,-2.483491 7.072745,0 12.806796,1.111514 12.806796,2.483491 z"
     id="path21"
     style="fill:url(#c);stroke-width:0.387017" />
</svg>
