<?xml version="1.0" encoding="UTF-8" standalone="no"?>
<svg
   xmlns:dc="http://purl.org/dc/elements/1.1/"
   xmlns:cc="http://creativecommons.org/ns#"
   xmlns:rdf="http://www.w3.org/1999/02/22-rdf-syntax-ns#"
   xmlns:svg="http://www.w3.org/2000/svg"
   xmlns="http://www.w3.org/2000/svg"
   xmlns:sodipodi="http://sodipodi.sourceforge.net/DTD/sodipodi-0.dtd"
   xmlns:inkscape="http://www.inkscape.org/namespaces/inkscape"
   viewBox="0 0 48 48"
   version="1.1"
   id="svg14"
   sodipodi:docname="scala.svg"
   width="48"
   height="48"
   inkscape:version="1.0.2-2 (e86c870879, 2021-01-15)">
  <metadata
     id="metadata20">
    <rdf:RDF>
      <cc:Work
         rdf:about="">
        <dc:format>image/svg+xml</dc:format>
        <dc:type
           rdf:resource="http://purl.org/dc/dcmitype/StillImage" />
        <dc:title></dc:title>
      </cc:Work>
    </rdf:RDF>
  </metadata>
  <defs
     id="defs18" />
  <sodipodi:namedview
     pagecolor="#ffffff"
     bordercolor="#666666"
     borderopacity="1"
     objecttolerance="10"
     gridtolerance="10"
     guidetolerance="10"
     inkscape:pageopacity="0"
     inkscape:pageshadow="2"
     inkscape:window-width="1366"
     inkscape:window-height="715"
     id="namedview16"
     showgrid="false"
     inkscape:zoom="4.28125"
     inkscape:cx="64"
     inkscape:cy="64"
     inkscape:window-x="-8"
     inkscape:window-y="-8"
     inkscape:window-maximized="1"
     inkscape:current-layer="svg14" />
  <g
     transform="matrix(0.02620513,0,0,0.02620513,5.7874357,-2.0524436)"
     fill="#390d09"
     id="g4">
    <path
       d="m 110,1680 v -230 h 83 c 46,0 119,-3 163,-7 l 78,-6 -104,-28 c -58,-15 -131,-37 -162,-49 l -58,-21 V 870 h 93 c 50,0 123,-3 161,-7 l 70,-6 -123,-33 C 243,807 171,784 149,775 L 110,757 V 303 l 31,-7 c 17,-3 59,-6 93,-6 168,0 567,-55 763,-105 137,-36 232,-72 265,-102 17,-15 18,-6 18,215 v 231 l -24,18 -24,19 48,42 v 501 l -24,18 -24,19 48,42 v 501 l -26,20 c -28,22 -136,59 -259,90 -192,48 -661,111 -821,111 h -64 z"
       id="path2" />
  </g>
  <g
     transform="matrix(0.02620513,0,0,0.02620513,5.7874357,-2.0524436)"
     fill="#de3423"
     id="g12">
    <path
       d="m 110,1682 v -229 l 175,-7 c 182,-7 317,-22 515,-56 225,-39 447,-109 470,-149 6,-10 10,67 10,216 v 232 l -26,20 c -28,22 -136,59 -259,90 -192,48 -661,111 -821,111 h -64 z"
       id="path6" />
    <path
       d="M 110,1102 V 873 l 175,-6 c 194,-8 345,-25 545,-62 224,-42 428,-110 443,-147 3,-7 6,90 6,216 1,200 -1,232 -16,248 -35,39 -305,109 -583,152 -169,26 -449,56 -527,56 h -43 z"
       id="path8" />
    <path
       d="M 110,526 V 302 l 31,-6 c 17,-3 59,-6 93,-6 168,0 567,-55 763,-105 137,-36 232,-72 265,-102 17,-15 18,-6 18,214 0,215 -1,231 -19,247 -27,25 -212,82 -356,111 -233,46 -620,95 -752,95 h -43 z"
       id="path10" />
  </g>
</svg>
